<svg xmlns="http://www.w3.org/2000/svg" viewBox="0 0 64 64" fill="none">
  <rect width="64" height="64" rx="16" fill="#121621" />
  <circle cx="32" cy="32" r="22" fill="#E9862B" />
  <path
    d="M32 10C26.8 15.7 24 23.4 24 32C24 40.6 26.8 48.3 32 54"
    stroke="#23160E"
    stroke-width="3"
    stroke-linecap="round"
  />
  <path
    d="M32 10C37.2 15.7 40 23.4 40 32C40 40.6 37.2 48.3 32 54"
    stroke="#23160E"
    stroke-width="3"
    stroke-linecap="round"
  />
  <path
    d="M10 32H54"
    stroke="#23160E"
    stroke-width="3"
    stroke-linecap="round"
  />
  <path
    d="M15.5 21C21 24.3 26.1 26 32 26C37.9 26 43 24.3 48.5 21"
    stroke="#23160E"
    stroke-width="3"
    stroke-linecap="round"
  />
  <path
    d="M15.5 43C21 39.7 26.1 38 32 38C37.9 38 43 39.7 48.5 43"
    stroke="#23160E"
    stroke-width="3"
    stroke-linecap="round"
  />
</svg>
